<?xml version="1.0" encoding="utf-8"?>
<!-- Generator: Adobe Illustrator 27.6.1, SVG Export Plug-In . SVG Version: 6.00 Build 0)  -->
<svg version="1.1" id="Layer_1" xmlns="http://www.w3.org/2000/svg" xmlns:xlink="http://www.w3.org/1999/xlink" x="0px" y="0px"
	 viewBox="0 0 484.43 295.93" style="enable-background:new 0 0 484.43 295.93;" xml:space="preserve">
<style type="text/css">
	.st0{fill:#797985;}
	.st1{fill:#ED8326;}
	.st2{fill:#ED8325;}
	.st3{fill:#F2E0CE;}
	.st4{fill:#EE913E;}
	.st5{fill:#F2D8C0;}
	.st6{fill:#F2CBA8;}
	.st7{fill:#F0B179;}
	.st8{fill:#F4F4F4;}
	.st9{fill:#B2B3B9;}
</style>
<g>
	<path class="st0" d="M480.87,202.19c-0.23,44.66-30.33,81.27-73.04,88.69c-33.28,5.78-61.34-4.93-83.65-30.37
		c-5.36-6.11-9.47-13.06-12.89-20.41c-0.31-0.67-0.52-1.24-1.37-1.59c-15.1-6.16-26.87-16.46-36.15-29.66
		c-12.12-17.25-17.68-36.56-15.86-57.52c2.72-31.33,18.14-54.99,45.27-70.82c13.82-8.07,29-11.99,44.94-11.23
		c35.38,1.69,61.47,18.47,77.87,49.91c1.23,2.37,2.7,3.63,4.85,4.72c25.53,12.94,41.59,33.37,48.12,61.23
		C480.39,191.23,481.02,197.44,480.87,202.19z M304.2,214.58c-3.27-28.65,5.28-53.4,25.58-73.68c20.29-20.27,45.26-28.17,73.8-25.25
		c-0.16-0.44-0.19-0.61-0.27-0.74c-0.23-0.35-0.47-0.69-0.73-1.01c-15.5-18.83-35.32-28.39-59.82-27.35
		c-20.27,0.86-37.18,9.25-50.39,24.51c-14.57,16.82-20.17,36.52-16.56,58.52c3.06,18.63,12.4,33.68,27.38,45.2
		c0.19,0.35,0.46,0.72,0.87,0.6C304.35,215.29,304.3,214.89,304.2,214.58z M391.9,275.33c38.84,0.37,71.34-31.44,71.88-70.12
		c0.56-40.52-31.44-72.35-69.98-72.99c-40.51-0.68-72.82,30.91-73.18,70.99C320.27,242.95,351.9,274.95,391.9,275.33z"/>
	<path class="st1" d="M162.51,17.04c-0.5,0.77-0.88,1.66-1.52,2.3C149.3,31.08,137.58,42.8,125.86,54.5
		c-3.23,3.22-7.29,3.24-10.06,0.11c-2.43-2.75-2.19-6.54,0.65-9.4c5.69-5.73,11.42-11.43,17.13-17.14
		c8.01-8.01,16.01-16.02,24.02-24.02c3.6-3.6,7.31-3.67,10.84-0.14c13.73,13.71,27.43,27.44,41.17,41.14
		c2.14,2.14,3.03,4.57,2.05,7.46c-0.85,2.51-2.77,3.9-5.35,4.3c-2.63,0.41-4.61-0.83-6.4-2.63c-11.58-11.62-23.19-23.2-34.77-34.82
		c-0.64-0.64-1.05-1.51-1.56-2.28C163.22,17.07,162.86,17.06,162.51,17.04z"/>
	<path class="st1" d="M80.26,245.73c-0.05-6.15-0.28-10.74,1.02-15.21c1.73-5.92,5.15-10.32,11.47-11.56
		c6.14-1.21,12.01-0.62,16.58,4.31c2.88,3.1,4.19,6.98,4.53,11.12c0.61,7.47,1.11,14.99-0.44,22.38
		c-1.96,9.36-7.82,13.71-17.28,13.39c-8.27-0.28-13.9-5.66-15.41-14.55C80.08,251.8,80.31,247.98,80.26,245.73z M90.23,243.38
		c0,3.3,0,5.88,0,8.46c0,0.42,0.02,0.83,0.05,1.25c0.13,2.09,0.52,4.12,1.47,6c0.78,1.54,1.89,2.68,3.67,3.11
		c4.23,1.02,7.58-1.17,8.27-5.99c1.07-7.52,0.74-15.09,0.22-22.65c-0.1-1.42-0.52-2.77-1.18-4.04c-1.77-3.39-6.08-4.46-9.17-2.24
		c-1.65,1.19-2.32,2.99-2.78,4.87C89.82,236.1,90.4,240.12,90.23,243.38z"/>
	<path class="st1" d="M74.22,244.41c0.06,4.08,0.17,8.16-0.73,12.18c-2,8.89-7.36,13.49-15.92,13.6
		c-8.83,0.12-14.65-4.19-16.43-13.2c-1.73-8.77-1.76-17.74,0.21-26.51c1.44-6.37,5.54-10.66,12.16-11.7
		c6.47-1.01,12.54-0.05,16.79,5.69c2.83,3.82,3.62,8.34,3.9,12.94C74.34,239.74,74.22,242.08,74.22,244.41z M50.15,244.33
		c0.19,4.07-0.39,8.26,0.67,12.35c0.62,2.39,1.6,4.58,4.25,5.43c4.28,1.37,7.74-1.04,8.68-6.03c0.9-4.79,0.39-9.63,0.5-14.45
		c0.06-3.08,0.15-6.16-0.52-9.2c-0.52-2.34-1.38-4.48-3.7-5.62c-3.99-1.96-8.04,0.23-9.21,5C49.81,235.91,50.31,240.1,50.15,244.33z
		"/>
	<path class="st1" d="M148.31,234.65c5.38-5.4,17.49-4.61,21.2,5.29c2.87,7.64,2.87,15.38-0.6,22.81c-3.6,7.7-12.96,9.81-19.89,4.78
		c-0.32-0.23-0.62-0.48-1.28-1.01c0,5.99,0,11.58,0,17.31c-3.39,0-6.52,0-9.81,0c0-17.17,0-34.28,0-51.57c2.91,0,5.86,0,8.84,0
		c0.6,0.66,0.33,1.57,0.55,2.35c0.06,0.28,0.12,0.56,0.19,0.83C147.77,235.18,148.04,234.92,148.31,234.65z M147.73,250.78
		c0,1.83,0,3.65,0,5.48c0,3.11,1.28,4.99,3.95,5.81c3.42,1.05,6.47,0.3,7.84-2.48c2.84-5.76,2.75-11.73,0.04-17.5
		c-1.23-2.62-4.49-3.49-7.62-2.61c-3.08,0.87-4.2,2.42-4.21,5.81C147.72,247.13,147.73,248.95,147.73,250.78z"/>
	<path class="st1" d="M198.78,257.66c2.91,0,5.81,0,8.69,0c1.47,4.68,4.48,6.43,9.36,5.44c1.95-0.39,3.42-1.42,3.66-3.54
		c0.24-2.09-1.1-3.17-2.83-3.91c-2.31-0.99-4.79-1.33-7.19-1.99c-2.26-0.62-4.42-1.42-6.38-2.73c-5.71-3.83-6.12-11.46-0.84-15.94
		c5.88-4.99,17.81-4.81,23.43,0.43c2.15,2,3.33,4.52,3.42,7.72c-3.23,0-6.42,0-9.61,0c-1.7-4.33-4.87-5.97-8.64-4.42
		c-1.56,0.64-2.62,1.68-2.73,3.51c-0.11,1.79,0.88,2.7,2.33,3.45c2.11,1.09,4.45,1.3,6.69,1.91c2.41,0.65,4.81,1.33,6.99,2.58
		c6.43,3.7,6.95,12.15,1.04,16.67c-6.23,4.77-17.56,4.53-23.57-0.51c-2.54-2.13-3.99-4.85-4.27-8.17
		C198.47,257.99,198.62,257.82,198.78,257.66z"/>
	<path class="st2" d="M178.8,231.65c0-2.82,0-5.65,0-8.67c3.37,0,6.55,0,9.95,0c0,2.93,0,5.81,0,8.75c2.15,0.79,4.26,0.07,6.4,0.52
		c0,2.22,0,4.42,0,6.8c-2,0-3.97,0-5.95,0c-0.64,1.51-0.33,2.94-0.34,4.31c-0.05,4.58-0.02,9.16-0.02,13.73
		c0.01,4.57,0.65,5.2,5.2,5.1c0.41-0.01,0.83,0.02,1.24,0.03c0.12,0.13,0.24,0.26,0.36,0.39c0,2.16,0,4.32,0,6.74
		c-3.84,1.09-7.76,1.44-11.57-0.22c-4.19-1.83-5.12-5.66-5.19-9.74c-0.09-5.83-0.02-11.66-0.02-17.49c0-0.82,0-1.64,0-2.73
		c-1.76,0-3.38,0-5.14,0c0-2.45,0-4.64,0-7.11c1.58,0,3.06,0,4.54,0C178.59,232.14,178.8,232.04,178.8,231.65z"/>
	<path class="st2" d="M14.25,230.72c-3.72,1.12-7.43,2.25-11.54,3.49c0-2.46-0.01-4.73,0-7c0-0.71,0.5-0.94,1.1-1.15
		c6.41-2.28,12.81-4.58,19.21-6.87c0.47-0.17,0.98-0.19,1.53,0.14c0,16.63,0,33.31,0,50.18c-3.18,0-6.23,0-9.28,0
		c-0.15-0.13-0.31-0.26-0.46-0.39c-0.04-10.66-0.07-21.32-0.11-31.98c-0.01-2-0.04-4-0.06-6C14.72,230.81,14.62,230.64,14.25,230.72
		z"/>
	<path class="st2" d="M156.57,84.83c4.4,0,8.61,0,13.01,0c0,4.55,0,9.07,0,13.73c-4.29,0-8.57,0-13.01,0
		C156.57,94.04,156.57,89.59,156.57,84.83z"/>
	<path class="st2" d="M169.68,113.13c0,4.4,0,8.79,0,13.36c-4.33,0-8.61,0-13.08,0c0-4.48,0-8.99,0-13.75c4.24,0,8.45,0,12.66,0
		C169.4,112.87,169.54,113,169.68,113.13z"/>
	<path class="st2" d="M156.57,70.6c0-4.55,0-9.01,0-13.64c4.41,0,8.69,0,13.08,0c0,4.57,0,9.03,0,13.64
		C165.29,70.6,161.01,70.6,156.57,70.6z"/>
	<path class="st2" d="M169.58,42.68c-4.45,0-8.66,0-13.01,0c0-4.6,0-9.05,0-13.63c4.38,0,8.6,0,13.01,0
		C169.58,33.55,169.58,38.06,169.58,42.68z"/>
	<path class="st2" d="M156.56,147.44c-0.23-2.22-0.25-4.41,0.02-6.69c4.4,0,8.67,0,13.06,0c0,2.24,0,4.37,0,6.69
		C165.36,147.44,161.03,147.44,156.56,147.44z"/>
	<path class="st1" d="M242.11,259.57c3.36-0.01,5.7,2.15,5.66,5.24c-0.04,2.95-2.39,5.11-5.58,5.14c-3.3,0.03-5.65-2.19-5.63-5.31
		C236.59,261.62,238.81,259.58,242.11,259.57z"/>
	<path class="st3" d="M148.31,234.65c-0.27,0.27-0.54,0.53-0.8,0.8c-0.06-0.28-0.12-0.56-0.19-0.83
		C147.65,234.63,147.98,234.64,148.31,234.65z"/>
	<path class="st4" d="M169.68,113.13c-0.14-0.13-0.28-0.26-0.42-0.4C169.6,112.66,169.72,112.81,169.68,113.13z"/>
	<path class="st5" d="M14.25,230.72c0.37-0.08,0.47,0.09,0.39,0.43C14.5,231.01,14.37,230.86,14.25,230.72z"/>
	<path class="st6" d="M178.8,231.65c0,0.39-0.21,0.49-0.56,0.42C178.43,231.93,178.61,231.79,178.8,231.65z"/>
	<path class="st7" d="M198.78,257.66c-0.16,0.17-0.31,0.33-0.47,0.5C198.25,257.78,198.41,257.63,198.78,257.66z"/>
	<path class="st1" d="M195.63,262.61c-0.12-0.13-0.24-0.26-0.36-0.39C195.63,262.14,195.71,262.3,195.63,262.61z"/>
	<path class="st4" d="M14.8,269.13c0.15,0.13,0.31,0.26,0.46,0.39C14.94,269.59,14.77,269.48,14.8,269.13z"/>
	<path class="st8" d="M391.9,275.33c-40-0.38-71.64-32.39-71.28-72.12c0.36-40.08,32.67-71.67,73.18-70.99
		c38.54,0.64,70.54,32.47,69.98,72.99C463.25,243.9,430.74,275.7,391.9,275.33z M383.64,194.83c0,1.38,0,2.27,0,3.17
		c0,9.33,0.02,18.65-0.01,27.98c-0.01,2.14,0.32,4.13,1.65,5.88c2.29,3,6.13,4.25,9.57,3.08c3.6-1.22,5.89-4.37,5.9-8.39
		c0.03-14.82,0.02-29.64,0.01-44.46c-0.01-7.97-6.3-11.87-13.48-8.32c-7.15,3.53-14.27,7.12-21.39,10.73
		c-4.65,2.36-6.49,7.48-4.29,11.75c2.23,4.34,7.34,5.87,11.97,3.58C376.77,198.24,379.95,196.66,383.64,194.83z"/>
	<path class="st8" d="M303.17,214.78c-14.98-11.52-24.32-26.57-27.38-45.2c-3.61-21.99,1.99-41.7,16.56-58.52
		c13.22-15.26,30.12-23.65,50.39-24.51c24.51-1.04,44.32,8.53,59.82,27.35c0.26,0.32,0.5,0.66,0.73,1.01
		c0.09,0.13,0.11,0.3,0.27,0.74c-28.54-2.92-53.51,4.99-73.8,25.25c-20.3,20.27-28.84,45.02-25.58,73.68
		C303.86,214.65,303.51,214.71,303.17,214.78z"/>
	<path class="st9" d="M303.17,214.78c0.34-0.07,0.68-0.13,1.02-0.2c0.11,0.3,0.15,0.71-0.15,0.8
		C303.63,215.5,303.36,215.13,303.17,214.78z"/>
	<path class="st8" d="M90.23,243.38c0.17-3.26-0.41-7.28,0.55-11.22c0.46-1.88,1.13-3.69,2.78-4.87c3.09-2.22,7.4-1.15,9.17,2.24
		c0.66,1.27,1.08,2.61,1.18,4.04c0.52,7.56,0.85,15.13-0.22,22.65c-0.69,4.82-4.04,7.01-8.27,5.99c-1.78-0.43-2.89-1.57-3.67-3.11
		c-0.96-1.88-1.34-3.91-1.47-6c-0.03-0.42-0.05-0.83-0.05-1.25C90.23,249.26,90.23,246.68,90.23,243.38z"/>
	<path class="st8" d="M50.15,244.33c0.16-4.23-0.35-8.42,0.66-12.52c1.18-4.77,5.22-6.96,9.21-5c2.32,1.14,3.18,3.28,3.7,5.62
		c0.67,3.04,0.59,6.12,0.52,9.2c-0.1,4.82,0.4,9.66-0.5,14.45c-0.94,5-4.4,7.4-8.68,6.03c-2.65-0.85-3.63-3.04-4.25-5.43
		C49.76,252.59,50.34,248.4,50.15,244.33z"/>
	<path class="st8" d="M147.73,250.78c0-1.83,0-3.65,0-5.48c0-3.4,1.13-4.95,4.21-5.81c3.13-0.88,6.39-0.01,7.62,2.61
		c2.71,5.77,2.8,11.74-0.04,17.5c-1.37,2.78-4.42,3.53-7.84,2.48c-2.66-0.82-3.95-2.7-3.95-5.81
		C147.72,254.44,147.73,252.61,147.73,250.78z"/>
	<path class="st2" d="M383.64,194.83c-3.69,1.83-6.88,3.41-10.07,4.99c-4.63,2.29-9.74,0.76-11.97-3.58
		c-2.2-4.28-0.36-9.4,4.29-11.75c7.11-3.61,14.24-7.2,21.39-10.73c7.18-3.55,13.48,0.35,13.48,8.32
		c0.01,14.82,0.02,29.64-0.01,44.46c-0.01,4.02-2.3,7.17-5.9,8.39c-3.44,1.16-7.27-0.08-9.57-3.08c-1.33-1.75-1.66-3.74-1.65-5.88
		c0.03-9.33,0.01-18.65,0.01-27.98C383.64,197.1,383.64,196.2,383.64,194.83z"/>
</g>
</svg>
