<svg width="64" height="61" viewBox="0 0 64 61" fill="none" xmlns="http://www.w3.org/2000/svg">
<path d="M40.7 19.92C40.6725 19.7275 40.645 19.535 40.5625 19.37C37.0425 11.9725 29.48 7.1875 21.3125 7.1875C9.57 7.1875 0 16.7575 0 28.5C0 36.695 4.785 44.2575 12.1825 47.75C12.3475 47.8325 12.54 47.8325 12.7325 47.86C16.005 55.45 23.54 60.785 32.3125 60.785C44.055 60.785 53.625 51.215 53.625 39.4725C53.625 30.7 48.29 23.165 40.7 19.8925V19.92ZM4.125 28.5C4.125 19.0125 11.825 11.3125 21.3125 11.3125C26.84 11.3125 31.9825 14.035 35.1725 18.4075C34.2375 18.27 33.275 18.1875 32.3125 18.1875C20.57 18.1875 11 27.7575 11 39.5C11 40.4625 11.0825 41.425 11.22 42.36C6.8475 39.17 4.125 34.0275 4.125 28.5ZM32.3125 56.6875C22.825 56.6875 15.125 48.9875 15.125 39.5C15.125 30.0125 22.825 22.3125 32.3125 22.3125C41.8 22.3125 49.5 30.0125 49.5 39.5C49.5 48.9875 41.8 56.6875 32.3125 56.6875Z" fill="black"/>
<path d="M31.405 32.1575L25.905 34.9075C24.8875 35.43 24.475 36.6675 24.97 37.685C25.4925 38.7025 26.73 39.115 27.7475 38.62L30.25 37.355V45.0275C30.25 46.155 31.185 47.09 32.3125 47.09C33.44 47.09 34.375 46.155 34.375 45.0275V34.0275C34.375 33.3125 34.0175 32.6525 33.385 32.2675C32.78 31.8825 32.01 31.855 31.3775 32.185L31.405 32.1575Z" fill="black"/>
<path d="M61.815 11.8773H45.9794C44.8868 11.8773 44 10.9906 44 9.8979C44 8.80525 44.8868 7.91846 45.9794 7.91846H61.815C62.9077 7.91846 63.7945 8.80525 63.7945 9.8979C63.7945 10.9906 62.9077 11.8773 61.815 11.8773Z" fill="black"/>
<path d="M53.8955 19.7945C52.8028 19.7945 51.916 18.9077 51.916 17.815V1.97945C51.916 0.886792 52.8028 0 53.8955 0C54.9881 0 55.8749 0.886792 55.8749 1.97945V17.815C55.8749 18.9077 54.9881 19.7945 53.8955 19.7945Z" fill="black"/>
</svg>
