<svg width="25" height="24" viewBox="0 0 25 24" fill="none" xmlns="http://www.w3.org/2000/svg">
<path d="M17.55 6.88C17.54 6.81 17.53 6.74 17.5 6.68C16.22 3.99 13.47 2.25 10.5 2.25C6.23 2.25 2.75 5.73 2.75 10C2.75 12.98 4.49 15.73 7.18 17C7.24 17.03 7.31 17.03 7.38 17.04C8.57 19.8 11.31 21.74 14.5 21.74C18.77 21.74 22.25 18.26 22.25 13.99C22.25 10.8 20.31 8.06 17.55 6.87V6.88ZM4.25 10C4.25 6.55 7.05 3.75 10.5 3.75C12.51 3.75 14.38 4.74 15.54 6.33C15.2 6.28 14.85 6.25 14.5 6.25C10.23 6.25 6.75 9.73 6.75 14C6.75 14.35 6.78 14.7 6.83 15.04C5.24 13.88 4.25 12.01 4.25 10ZM14.5 20.25C11.05 20.25 8.25 17.45 8.25 14C8.25 10.55 11.05 7.75 14.5 7.75C17.95 7.75 20.75 10.55 20.75 14C20.75 17.45 17.95 20.25 14.5 20.25Z" fill="#070707"/>
<path d="M14.1699 11.3299L12.1699 12.3299C11.7999 12.5199 11.6499 12.9699 11.8299 13.3399C12.0199 13.7099 12.4699 13.8599 12.8399 13.6799L13.7499 13.2199V16.0099C13.7499 16.4199 14.0899 16.7599 14.4999 16.7599C14.9099 16.7599 15.2499 16.4199 15.2499 16.0099V12.0099C15.2499 11.7499 15.1199 11.5099 14.8899 11.3699C14.6699 11.2299 14.3899 11.2199 14.1599 11.3399L14.1699 11.3299Z" fill="#070707"/>
</svg>
