<svg width="107" height="89" viewBox="0 0 107 89" fill="none" xmlns="http://www.w3.org/2000/svg">
<path d="M40.4072 69.9352C40.3139 69.9352 40.2222 69.9181 40.1305 69.8839L27.8205 65.1936C25.25 64.2145 22.5489 63.7188 19.7982 63.7188H15.5415C15.1125 63.7188 14.7644 63.3706 14.7644 62.9417C14.7644 62.5128 15.1125 62.1647 15.5415 62.1647H19.7982C22.7401 62.1647 25.6245 62.6962 28.3737 63.7436L40.6838 68.4339C41.0863 68.5862 41.2868 69.0354 41.1329 69.4363C41.0164 69.7456 40.7196 69.9352 40.4072 69.9352Z" fill="#263238"/>
<path d="M71.4893 88.5839H48.9392C45.2513 88.5839 41.6194 87.9499 38.1491 86.7004L26.3782 82.4623C24.7682 81.8826 23.0851 81.5905 21.3771 81.5905H15.5415C15.1125 81.5905 14.7644 81.2423 14.7644 80.8134C14.7644 80.3845 15.1125 80.0363 15.5415 80.0363H21.3771C23.2654 80.0363 25.1256 80.3612 26.9035 80.9999L38.6743 85.2379C41.9784 86.4284 45.4316 87.0298 48.9392 87.0298H71.4893C73.2035 87.0298 74.5975 85.6358 74.5975 83.9216C74.5975 82.2074 73.2035 80.8134 71.4893 80.8134H53.6171C53.1882 80.8134 52.84 80.4653 52.84 80.0363C52.84 79.6074 53.1882 79.2593 53.6171 79.2593H71.4893C74.0598 79.2593 76.1516 81.3511 76.1516 83.9216C76.1516 86.4921 74.0598 88.5839 71.4893 88.5839Z" fill="#263238"/>
<path d="M0.777013 60.6106V83.1452C0.777013 84.003 1.47325 84.6993 2.33112 84.6993H10.8787C11.7366 84.6993 12.4328 84.003 12.4328 83.1452V60.6106C12.4328 59.7527 11.7366 59.0565 10.8787 59.0565H2.33112C1.47325 59.0565 0.777013 59.7527 0.777013 60.6106Z" fill="#787985"/>
<path d="M10.8788 85.4762H2.33116C1.04591 85.4762 0 84.4303 0 83.145V60.6105C0 59.3252 1.04591 58.2793 2.33116 58.2793H10.8788C12.164 58.2793 13.2099 59.3252 13.2099 60.6105V83.145C13.2099 84.4303 12.164 85.4762 10.8788 85.4762ZM2.33116 59.8334C1.90378 59.8334 1.55411 60.1831 1.55411 60.6105V83.145C1.55411 83.5724 1.90378 83.9221 2.33116 83.9221H10.8788C11.3061 83.9221 11.6558 83.5724 11.6558 83.145V60.6105C11.6558 60.1831 11.3061 59.8334 10.8788 59.8334H2.33116Z" fill="#263238"/>
<path d="M51.2858 77.7055H41.1841C40.7552 77.7055 40.4071 77.3574 40.4071 76.9285C40.4071 76.4995 40.7552 76.1514 41.1841 76.1514H51.2858C53 76.1514 54.3941 74.7574 54.3941 73.0432C54.3941 71.329 53 69.935 51.2858 69.935L40.4072 69.9352C39.9782 69.9352 39.63 69.5869 39.63 69.1579C39.63 68.729 39.9782 68.3809 40.4071 68.3809H51.2858C53.8563 68.3809 55.9482 70.4727 55.9482 73.0432C55.9482 75.6137 53.8563 77.7055 51.2858 77.7055Z" fill="#263238"/>
<path d="M87.807 8.54797H86.2529C85.8239 8.54797 85.4758 8.19985 85.4758 7.77092C85.4758 7.34198 85.8239 6.99386 86.2529 6.99386H87.807C88.2359 6.99386 88.584 7.34198 88.584 7.77092C88.584 8.19985 88.2359 8.54797 87.807 8.54797Z" fill="#263238"/>
<path d="M83.1445 8.54778H66.0493C65.6204 8.54778 65.2723 8.19966 65.2723 7.77073C65.2723 7.34179 65.6204 6.99367 66.0493 6.99367H83.1445C83.5734 6.99367 83.9216 7.34179 83.9216 7.77073C83.9216 8.19966 83.5734 8.54778 83.1445 8.54778Z" fill="#263238"/>
<path d="M80.0355 13.21H59.8321C59.4032 13.21 59.0551 12.8619 59.0551 12.433C59.0551 12.004 59.4032 11.6559 59.8321 11.6559H80.0355C80.4645 11.6559 80.8126 12.004 80.8126 12.433C80.8126 12.8619 80.4645 13.21 80.0355 13.21Z" fill="#263238"/>
<path d="M27.1966 4.66271H20.9802C20.5512 4.66271 20.2031 4.3146 20.2031 3.88566C20.2031 3.45673 20.5512 3.10861 20.9802 3.10861H27.1966C27.6255 3.10861 27.9737 3.45673 27.9737 3.88566C27.9737 4.3146 27.6255 4.66271 27.1966 4.66271Z" fill="#263238"/>
<path d="M24.0879 7.77054C23.659 7.77054 23.3109 7.42242 23.3109 6.99348V0.777054C23.3109 0.34812 23.659 0 24.0879 0C24.5168 0 24.865 0.34812 24.865 0.777054V6.99348C24.865 7.42242 24.5168 7.77054 24.0879 7.77054Z" fill="#263238"/>
<path d="M14.7632 13.2103H8.54681C8.11788 13.2103 7.76976 12.8622 7.76976 12.4333C7.76976 12.0043 8.11788 11.6562 8.54681 11.6562H14.7632C15.1922 11.6562 15.5403 12.0043 15.5403 12.4333C15.5403 12.8622 15.1922 13.2103 14.7632 13.2103Z" fill="#263238"/>
<path d="M11.656 16.3182C11.2271 16.3182 10.879 15.9701 10.879 15.5412V9.32475C10.879 8.89582 11.2271 8.5477 11.656 8.5477C12.085 8.5477 12.4331 8.89582 12.4331 9.32475V15.5412C12.4331 15.9701 12.085 16.3182 11.656 16.3182Z" fill="#263238"/>
<path d="M40.4104 21.4653C37.1776 18.2326 31.9372 18.2326 28.7045 21.4653C25.4718 24.698 25.4718 29.9384 28.7045 33.1711C28.8156 33.2823 28.9351 33.3804 29.0509 33.4845C29.9034 31.2639 32.0389 29.683 34.5574 29.683C37.076 29.683 39.2126 31.2651 40.0639 33.4845C40.1798 33.3804 40.2992 33.2823 40.4104 33.1711C43.6431 29.9384 43.6431 24.698 40.4104 21.4653Z" fill="#ED8324"/>
<path d="M34.559 38.5447C31.681 38.5447 28.8054 37.4486 26.6156 35.2599C22.2359 30.8803 22.2359 23.7551 26.6156 19.3742C30.9928 14.997 38.1204 14.9946 42.5013 19.3742C46.8821 23.7539 46.8809 30.8791 42.5013 35.2599C40.3114 37.4486 37.4358 38.5447 34.559 38.5447ZM34.559 17.2719C31.9849 17.2719 29.4108 18.2509 27.4515 20.2102C23.533 24.1287 23.533 30.5043 27.4515 34.424C31.37 38.3436 37.7456 38.3436 41.6653 34.424C45.5838 30.5054 45.5838 24.1299 41.6653 20.2102C39.706 18.2509 37.1319 17.2719 34.559 17.2719Z" fill="#263238"/>
<path d="M34.5574 29.683C36.5165 29.683 38.1049 28.0947 38.1049 26.1356C38.1049 24.1766 36.5168 22.5884 34.5577 22.5884C32.5986 22.5884 31.0104 24.1766 31.0104 26.1356C31.0104 28.0947 32.5983 29.683 34.5574 29.683Z" fill="white"/>
<path d="M34.5572 30.274C32.2752 30.274 30.4188 28.4177 30.4188 26.1356C30.4188 23.8536 32.2752 21.9972 34.5572 21.9972C36.8393 21.9972 38.6957 23.8536 38.6957 26.1356C38.6957 28.4177 36.8393 30.274 34.5572 30.274ZM34.5572 23.1796C32.9267 23.1796 31.6012 24.5051 31.6012 26.1356C31.6012 27.7661 32.9267 29.0916 34.5572 29.0916C36.1878 29.0916 37.5132 27.7661 37.5132 26.1356C37.5132 24.5051 36.1878 23.1796 34.5572 23.1796Z" fill="#263238"/>
<path d="M40.0643 34.0747C39.8267 34.0747 39.602 33.9305 39.5121 33.6952C38.7164 31.6177 36.7695 30.274 34.5572 30.274C32.3449 30.274 30.4005 31.6177 29.6047 33.6952C29.4877 34.0002 29.1459 34.1539 28.8409 34.0357C28.5358 33.9186 28.3833 33.5769 28.5003 33.2719C29.4746 30.7332 31.8519 29.0916 34.5572 29.0916C37.2638 29.0916 39.6422 30.7332 40.6165 33.2719C40.7336 33.5769 40.581 33.9186 40.276 34.0357C40.2062 34.0617 40.1353 34.0747 40.0643 34.0747Z" fill="#263238"/>
<path d="M46.2202 44.6888C44.0197 42.4883 40.4525 42.4883 38.2519 44.6888C36.0514 46.8894 36.0514 50.4566 38.2519 52.6571C38.3276 52.7328 38.4089 52.7996 38.4878 52.8704C39.0681 51.3588 40.5217 50.2827 42.2361 50.2827C43.9505 50.2827 45.4049 51.3596 45.9844 52.8704C46.0633 52.7996 46.1445 52.7328 46.2202 52.6571C48.4207 50.4566 48.4207 46.8894 46.2202 44.6888Z" fill="#ED8324"/>
<path d="M42.2371 56.315C40.278 56.315 38.3206 55.5689 36.8299 54.0791C33.8487 51.0978 33.8487 46.2477 36.8299 43.2656C39.8096 40.2859 44.6614 40.2843 47.6435 43.2656C50.6255 46.2468 50.6247 51.097 47.6435 54.0791C46.1528 55.5689 44.1954 56.315 42.2371 56.315ZM42.2371 41.8345C40.4849 41.8345 38.7327 42.5009 37.399 43.8346C34.7316 46.502 34.7316 50.8419 37.399 53.5101C40.0664 56.1782 44.4062 56.1782 47.0744 53.5101C49.7418 50.8427 49.7418 46.5028 47.0744 43.8346C45.7407 42.5009 43.9885 41.8345 42.2371 41.8345Z" fill="#263238"/>
<path d="M42.2361 50.2827C43.5696 50.2827 44.6512 49.2017 44.6512 47.8682C44.6512 46.5346 43.5702 45.4536 42.2366 45.4536C40.9031 45.4536 39.822 46.5346 39.822 47.8682C39.822 49.2017 40.9025 50.2827 42.2361 50.2827Z" fill="white"/>
<path d="M42.2359 50.6855C40.6825 50.6855 39.4188 49.4219 39.4188 47.8685C39.4188 46.315 40.6825 45.0514 42.2359 45.0514C43.7893 45.0514 45.053 46.315 45.053 47.8685C45.053 49.4219 43.7893 50.6855 42.2359 50.6855ZM42.2359 45.8563C41.126 45.8563 40.2237 46.7585 40.2237 47.8685C40.2237 48.9784 41.126 49.8806 42.2359 49.8806C43.3458 49.8806 44.2481 48.9784 44.2481 47.8685C44.2481 46.7585 43.3458 45.8563 42.2359 45.8563Z" fill="#263238"/>
<path d="M45.9856 53.2722C45.8238 53.2722 45.6709 53.174 45.6097 53.0139C45.068 51.5997 43.7432 50.6854 42.2373 50.6854C40.7313 50.6854 39.4073 51.5997 38.8656 53.0139C38.7859 53.2215 38.5533 53.3262 38.3457 53.2457C38.138 53.166 38.0342 52.9334 38.1139 52.7257C38.7771 50.9976 40.3957 49.8805 42.2373 49.8805C44.0796 49.8805 45.6982 50.9976 46.3614 52.7257C46.4411 52.9334 46.3373 53.166 46.1296 53.2457C46.0822 53.2634 46.0339 53.2722 45.9856 53.2722Z" fill="#263238"/>
<path d="M77.1895 29.8092C72.3252 24.9449 64.4398 24.9449 59.5754 29.8092C54.7111 34.6736 54.7111 42.559 59.5754 47.4233C59.7427 47.5906 59.9224 47.7383 60.0967 47.8948C61.3795 44.5535 64.5928 42.1747 68.3825 42.1747C72.1722 42.1747 75.3872 44.5553 76.6682 47.8948C76.8426 47.7383 77.0223 47.5906 77.1895 47.4233C82.0539 42.559 82.0539 34.6736 77.1895 29.8092Z" fill="#ED8324"/>
<path d="M68.3853 55.5093C64.0548 55.5093 59.7277 53.86 56.4327 50.5667C49.8425 43.9765 49.8425 33.2551 56.4327 26.6631C63.0193 20.0765 73.7443 20.073 80.3362 26.6631C86.9282 33.2533 86.9264 43.9748 80.3362 50.5667C77.0411 53.86 72.7141 55.5093 68.3853 55.5093ZM68.3853 23.4997C64.512 23.4997 60.6387 24.9729 57.6906 27.921C51.7943 33.8173 51.7943 43.4108 57.6906 49.3088C63.5868 55.2069 73.1803 55.2069 79.0783 49.3088C84.9746 43.4125 84.9746 33.8191 79.0783 27.921C76.1302 24.9729 72.2569 23.4997 68.3853 23.4997Z" fill="#263238"/>
<path d="M68.3825 42.1747C71.3304 42.1747 73.7195 39.7845 73.7195 36.8366C73.7195 33.8887 71.3298 31.499 68.3819 31.499C65.434 31.499 63.0443 33.8887 63.0443 36.8366C63.0443 39.7845 65.4346 42.1747 68.3825 42.1747Z" fill="white"/>
<path d="M68.381 43.0641C64.9472 43.0641 62.1538 40.2707 62.1538 36.8369C62.1538 33.403 64.9472 30.6097 68.381 30.6097C71.8149 30.6097 74.6082 33.403 74.6082 36.8369C74.6082 40.2707 71.8149 43.0641 68.381 43.0641ZM68.381 32.3889C65.9275 32.3889 63.933 34.3833 63.933 36.8369C63.933 39.2904 65.9275 41.2849 68.381 41.2849C70.8345 41.2849 72.829 39.2904 72.829 36.8369C72.829 34.3833 70.8345 32.3889 68.381 32.3889Z" fill="#263238"/>
<path d="M76.6681 48.7833C76.3105 48.7833 75.9724 48.5662 75.8372 48.2122C74.6398 45.0861 71.7112 43.0649 68.3823 43.0649C65.0535 43.0649 62.1267 45.0861 60.9293 48.2122C60.7531 48.6712 60.2389 48.9025 59.7799 48.7246C59.3209 48.5484 59.0913 48.0342 59.2675 47.5752C60.7336 43.7553 64.3115 41.2857 68.3823 41.2857C72.4549 41.2857 76.0329 43.7553 77.499 47.5752C77.6751 48.0342 77.4456 48.5484 76.9866 48.7246C76.8816 48.7637 76.7748 48.7833 76.6681 48.7833Z" fill="#263238"/>
<path d="M101.028 56.654C97.4377 53.0637 91.6175 53.0637 88.0271 56.654C84.4368 60.2444 84.4368 66.0646 88.0271 69.6549C88.1506 69.7783 88.2832 69.8873 88.4119 70.0029C89.3587 67.5367 91.7304 65.7809 94.5276 65.7809C97.3247 65.7809 99.6977 67.538 100.643 70.0029C100.772 69.8873 100.905 69.7783 101.028 69.6549C104.618 66.0646 104.618 60.2444 101.028 56.654Z" fill="#ED8324"/>
<path d="M94.5293 75.6226C91.3329 75.6226 88.1392 74.4053 85.7071 71.9745C80.8429 67.1104 80.8429 59.1969 85.7071 54.3314C90.5686 49.4699 98.4847 49.4672 103.35 54.3314C108.216 59.1956 108.214 67.109 103.35 71.9745C100.918 74.4053 97.7244 75.6226 94.5293 75.6226ZM94.5293 51.9965C91.6704 51.9965 88.8115 53.0838 86.6355 55.2599C82.2835 59.6119 82.2835 66.6927 86.6355 71.0461C90.9875 75.3994 98.0684 75.3994 102.422 71.0461C106.774 66.6941 106.774 59.6132 102.422 55.2599C100.246 53.0838 97.3869 51.9965 94.5293 51.9965Z" fill="#263238"/>
<path d="M94.5288 65.7802C96.7047 65.7802 98.4685 64.0164 98.4685 61.8406C98.4685 59.6648 96.7047 57.9009 94.5288 57.9009C92.353 57.9009 90.5892 59.6648 90.5892 61.8406C90.5892 64.0164 92.353 65.7802 94.5288 65.7802Z" fill="white"/>
<path d="M94.5275 66.4371C91.993 66.4371 89.9312 64.3753 89.9312 61.8408C89.9312 59.3063 91.993 57.2446 94.5275 57.2446C97.062 57.2446 99.1238 59.3063 99.1238 61.8408C99.1238 64.3753 97.062 66.4371 94.5275 66.4371ZM94.5275 58.5578C92.7166 58.5578 91.2445 60.0299 91.2445 61.8408C91.2445 63.6518 92.7166 65.1239 94.5275 65.1239C96.3384 65.1239 97.8106 63.6518 97.8106 61.8408C97.8106 60.0299 96.3384 58.5578 94.5275 58.5578Z" fill="#263238"/>
<path d="M100.644 70.6582C100.38 70.6582 100.131 70.498 100.031 70.2367C99.1473 67.9293 96.9858 66.4375 94.5287 66.4375C92.0717 66.4375 89.9114 67.9293 89.0276 70.2367C88.8976 70.5755 88.5181 70.7462 88.1793 70.6149C87.8405 70.4849 87.6711 70.1053 87.8011 69.7665C88.8832 66.947 91.5241 65.1243 94.5287 65.1243C97.5347 65.1243 100.176 66.947 101.258 69.7665C101.388 70.1053 101.218 70.4849 100.879 70.6149C100.802 70.6438 100.723 70.6582 100.644 70.6582Z" fill="#263238"/>
</svg>
