<svg width="158" height="129" viewBox="0 0 158 129" fill="none" xmlns="http://www.w3.org/2000/svg">
<path d="M118 0.625C96.2559 0.625 78.625 18.2559 78.625 40C78.625 61.7441 96.2559 79.375 118 79.375C139.744 79.375 157.375 61.7441 157.375 40C157.375 18.2559 139.744 0.625 118 0.625ZM118 72.6953C99.9473 72.6953 85.3047 58.0527 85.3047 40C85.3047 21.9473 99.9473 7.30469 118 7.30469C136.053 7.30469 150.695 21.9473 150.695 40C150.695 58.0527 136.053 72.6953 118 72.6953Z" fill="#ED8324"/>
<path d="M110.496 31.063C110.496 33.2954 111.875 35.0268 114.846 36.0991C115.259 36.2661 115.672 36.3979 116.165 36.5385V25.6401C112.913 26.0532 110.496 27.8725 110.496 31.063ZM120.735 42.9457C120.48 42.893 120.234 42.8315 119.961 42.7524V54.5033C123.706 54.1693 126.29 52.1039 126.29 48.6674C126.29 45.9691 124.892 44.2113 120.735 42.9457Z" fill="white"/>
<path d="M122.191 37.9609L119.959 37.4424V25.6387C123.299 26.0957 125.364 28.1875 125.716 30.7539C125.76 31.1055 126.058 31.3604 126.41 31.3604H130.356C130.769 31.3604 131.095 31 131.059 30.5869C130.523 25.1113 126.014 21.5957 119.994 20.9893V18.1152C119.994 17.7285 119.678 17.4121 119.291 17.4121H116.821C116.434 17.4121 116.118 17.7285 116.118 18.1152V21.0156C109.895 21.6221 105.026 25.0586 105.026 31.4746C105.026 37.416 109.403 40.2812 114 41.3799L116.171 41.9336V54.4756C112.286 53.957 110.106 51.8828 109.658 49.0879C109.605 48.7539 109.306 48.5078 108.964 48.5078H104.903C104.49 48.5078 104.165 48.8594 104.2 49.2725C104.595 54.1064 108.261 58.5537 116.083 59.125V61.8848C116.083 62.2715 116.399 62.5879 116.786 62.5879H119.282C119.669 62.5879 119.985 62.2715 119.985 61.876L119.968 59.0898C126.849 58.4834 131.771 54.8008 131.771 48.1914C131.763 42.0918 127.887 39.3672 122.191 37.9609ZM116.162 36.5371C115.67 36.3965 115.257 36.2646 114.844 36.0977C111.873 35.0254 110.493 33.2939 110.493 31.0615C110.493 27.8711 112.91 26.0518 116.162 25.6387V36.5371ZM119.959 54.502V42.751C120.231 42.8301 120.477 42.8916 120.732 42.9443C124.889 44.21 126.287 45.9678 126.287 48.666C126.287 52.1025 123.703 54.168 119.959 54.502Z" fill="#ED8324"/>
<path d="M77.8113 92.4452C77.6317 92.4452 77.4552 92.4123 77.2786 92.3465L53.5734 83.3145C48.6234 81.4291 43.4221 80.4744 38.125 80.4744H29.928C29.102 80.4744 28.4316 79.804 28.4316 78.978C28.4316 78.1521 29.102 77.4817 29.928 77.4817H38.125C43.7902 77.4817 49.3447 78.5052 54.6388 80.5223L78.344 89.5543C79.1191 89.8476 79.5052 90.7124 79.2089 91.4846C78.9844 92.0801 78.4128 92.4452 77.8113 92.4452Z" fill="#263238"/>
<path d="M137.665 128.357H94.2413C87.1396 128.357 80.1456 127.136 73.4629 124.73L50.7961 116.569C47.6957 115.452 44.4546 114.89 41.1656 114.89H29.928C29.102 114.89 28.4316 114.219 28.4316 113.393C28.4316 112.567 29.102 111.897 29.928 111.897H41.1656C44.8017 111.897 48.384 112.522 51.8077 113.752L74.4744 121.914C80.8369 124.206 87.4867 125.364 94.2413 125.364H137.665C140.966 125.364 143.651 122.68 143.651 119.379C143.651 116.078 140.966 113.393 137.665 113.393H103.249C102.423 113.393 101.753 112.723 101.753 111.897C101.753 111.071 102.423 110.401 103.249 110.401H137.665C142.615 110.401 146.644 114.429 146.644 119.379C146.644 124.329 142.615 128.357 137.665 128.357Z" fill="#263238"/>
<path d="M20.949 122.372H4.48906C2.01409 122.372 0 120.358 0 117.883V74.4891C0 72.0141 2.01409 70 4.48906 70H20.949C23.4239 70 25.438 72.0141 25.438 74.4891V117.883C25.438 120.358 23.4239 122.372 20.949 122.372ZM4.48906 72.9927C3.66607 72.9927 2.99271 73.6661 2.99271 74.4891V117.883C2.99271 118.706 3.66607 119.38 4.48906 119.38H20.949C21.7719 119.38 22.4453 118.706 22.4453 117.883V74.4891C22.4453 73.6661 21.7719 72.9927 20.949 72.9927H4.48906Z" fill="#263238"/>
<path d="M98.7588 107.409H79.3062C78.4802 107.409 77.8098 106.738 77.8098 105.912C77.8098 105.086 78.4802 104.416 79.3062 104.416H98.7588C102.06 104.416 104.744 101.731 104.744 98.4305C104.744 95.1296 102.06 92.4451 98.7588 92.4451H77.8098C76.9838 92.4451 76.3135 91.7747 76.3135 90.9487C76.3135 90.1228 76.9838 89.4524 77.8098 89.4524H98.7588C103.709 89.4524 107.737 93.4806 107.737 98.4305C107.737 103.38 103.709 107.409 98.7588 107.409Z" fill="#263238"/>
</svg>
