<svg width="50" height="10" viewBox="0 0 50 10" fill="none" xmlns="http://www.w3.org/2000/svg">
<path d="M9.5 5C9.5 7.48528 7.48528 9.5 5 9.5C2.51472 9.5 0.5 7.48528 0.5 5C0.5 2.51472 2.51472 0.5 5 0.5C7.48528 0.5 9.5 2.51472 9.5 5ZM29.5 5C29.5 7.48528 27.4853 9.5 25 9.5C22.5147 9.5 20.5 7.48528 20.5 5C20.5 2.51472 22.5147 0.5 25 0.5C27.4853 0.5 29.5 2.51472 29.5 5ZM49.5 5C49.5 7.48528 47.4853 9.5 45 9.5C42.5147 9.5 40.5 7.48528 40.5 5C40.5 2.51472 42.5147 0.5 45 0.5C47.4853 0.5 49.5 2.51472 49.5 5Z" stroke="black"/>
</svg>
