<svg width="53" height="58" viewBox="0 0 53 58" fill="none" xmlns="http://www.w3.org/2000/svg">
<path d="M42.6129 19.48V56.31H1V9.34C1 4.74 4.3706 1 8.52737 1H47.104M9.08781 14.5998L10.2987 15.9498L12.8199 13.0898M20.6455 12.1802H29.3205M20.6905 15.75H36.1157M33.188 48.3201L49.1102 24.5801M9.08781 31.1601L10.2987 32.5001L12.8199 29.6401M20.6455 28.73H29.3205M20.6905 32.2998H36.1157M9.08781 47.7099L10.2987 49.0599L12.8199 46.1899M20.6455 45.2798H29.3205M20.6905 48.8501H26.2479M51.6042 19.4798H42.6039V5.98977C42.6039 3.23977 44.619 1.00977 47.104 1.00977C49.5891 1.00977 51.6042 3.23977 51.6042 5.98977V19.4798ZM15.5128 14.3001C15.5128 17.2901 13.3259 19.7101 10.624 19.7101C7.92214 19.7101 5.73532 17.2901 5.73532 14.3001C5.73532 11.3101 7.92214 8.89014 10.624 8.89014C13.3259 8.89014 15.5128 11.3101 15.5128 14.3001ZM15.5128 30.8499C15.5128 33.8399 13.3259 36.2599 10.624 36.2599C7.92214 36.2599 5.73532 33.8399 5.73532 30.8499C5.73532 27.8599 7.92214 25.4399 10.624 25.4399C13.3259 25.4399 15.5128 27.8599 15.5128 30.8499ZM15.5128 47.4002C15.5128 50.3902 13.3259 52.8102 10.624 52.8102C7.92214 52.8102 5.73532 50.3902 5.73532 47.4002C5.73532 44.4102 7.92214 41.9902 10.624 41.9902C13.3259 41.9902 15.5128 44.4202 15.5128 47.4002Z" stroke="#242424" stroke-width="2" stroke-miterlimit="10" stroke-linecap="round" stroke-linejoin="round"/>
</svg>
